<svg id="Layer_1" data-name="Layer 1" xmlns="http://www.w3.org/2000/svg" viewBox="0 0 512 512"><defs><style>.cls-1{fill:#23bbb3;}.cls-2{fill:#fcf7f2;}</style></defs><circle class="cls-1" cx="256" cy="256" r="250"/><circle class="cls-2" cx="256" cy="256" r="217.5"/><path class="cls-1" d="M225.83,192.83a6.94,6.94,0,0,1,.52,9.84l-20.91,23.24a6.87,6.87,0,0,1-5,2.29,7.17,7.17,0,0,1-5.12-2l-11.64-11.62a7,7,0,0,1,0-9.87,6.92,6.92,0,0,1,9.84,0l6.42,6.41,16-17.77a6.94,6.94,0,0,1,9.84-.52Zm0,46.47a6.94,6.94,0,0,1,.52,9.84l-20.91,23.24a6.87,6.87,0,0,1-5,2.29,7.17,7.17,0,0,1-5.12-2L183.69,261a7,7,0,0,1,9.84-9.85l6.42,6.42,16-17.77a6.94,6.94,0,0,1,9.84-.52Zm20.88-29.69a9.29,9.29,0,0,1,9.3-9.29h65.06a9.3,9.3,0,0,1,0,18.59H256A9.3,9.3,0,0,1,246.71,209.61Zm0,46.47a9.29,9.29,0,0,1,9.3-9.29h65.06a9.3,9.3,0,0,1,0,18.59H256A9.3,9.3,0,0,1,246.71,256.08Zm-20.88,29.54a7,7,0,0,1,.52,9.85L205.44,318.7a6.84,6.84,0,0,1-5,2.3,7.17,7.17,0,0,1-5.12-2l-11.64-11.62a7,7,0,0,1,9.84-9.85l6.42,6.42,16-17.77a7,7,0,0,1,9.84-.53Zm20.88,16.79a9.29,9.29,0,0,1,9.3-9.29h65.06a9.3,9.3,0,0,1,0,18.59H256A9.3,9.3,0,0,1,246.71,302.41Z"/></svg>