<svg id="Layer_1" data-name="Layer 1" xmlns="http://www.w3.org/2000/svg" viewBox="0 0 512 512"><defs><style>.cls-1{fill:#23bbb3;}.cls-2{fill:#fff;}</style></defs><circle class="cls-1" cx="256" cy="256" r="250"/><circle class="cls-2" cx="256" cy="256" r="217.5"/><path class="cls-1" d="M265.21,278.37a15.76,15.76,0,0,0-10.53,4V259.6H237.77a20.7,20.7,0,1,1-39.86,0H181v60.87A10.52,10.52,0,0,0,191.53,331h63.15V305.92a15.79,15.79,0,1,0,10.53-27.55Z"/><path class="cls-1" d="M273.46,246.79a20.7,20.7,0,1,1,40.63,5.61H331V191.53A10.52,10.52,0,0,0,320.47,181H257.32v25.08a15.79,15.79,0,1,0,0,23.53V252.4h16.91A20.7,20.7,0,0,1,273.46,246.79Z"/><path class="cls-1" d="M246.79,238.54a20.7,20.7,0,1,1,5.61-40.63V181H191.53A10.52,10.52,0,0,0,181,191.53v63.15h25.08a15.79,15.79,0,1,0,23.53,0H252.4V237.77A20.7,20.7,0,0,1,246.79,238.54Z"/><path class="cls-1" d="M305.92,257.32a15.79,15.79,0,1,0-23.53,0H259a4.84,4.84,0,0,1,.57,2.28v14.63a20.7,20.7,0,1,1,0,39.86V331h60.87A10.52,10.52,0,0,0,331,320.47V257.32Z"/></svg>