<svg id="Layer_1" data-name="Layer 1" xmlns="http://www.w3.org/2000/svg" viewBox="0 0 1070 214.84"><defs><style>.cls-1{fill:#28b7b1;}.cls-2{fill:#fff;}</style></defs><path class="cls-1" d="M625,220.35q-22.35,0-41.72-1t-33.8-2.69V199.42h68.17a85.23,85.23,0,0,0,21.78-2.55,27.76,27.76,0,0,0,15.13-9.47q5.5-6.93,5.51-19.66V153.88q0-11-5.51-17.53A30.85,30.85,0,0,0,640.85,127a57.71,57.71,0,0,0-17-3.11l-53.46-2v-16.4L623,103.26q15.27-.57,24.75-6.65t9.47-20.51V62.24q0-15.54-10.32-23.9T616,30h-59.4V12.75q13-1.7,29.84-2.83t37.76-1.13q18.68.29,31,6.36t18.25,17q5.94,10.89,5.93,25.6V75.54a41.64,41.64,0,0,1-3,16.54,34.61,34.61,0,0,1-7.63,11.46,35.47,35.47,0,0,1-9.9,6.93,44,44,0,0,1-9.48,3.25,45.39,45.39,0,0,1,10.47,4.1,47.26,47.26,0,0,1,10.89,8.06,40.56,40.56,0,0,1,8.62,12.73,44.19,44.19,0,0,1,3.4,18.1v14.43q0,24-15.13,36.62T625,220.35Z" transform="translate(-5 -6.2)"/><path class="cls-1" d="M796.41,219.5a58.85,58.85,0,0,1-23.76-4.67q-10.75-4.67-18.1-16.26t-11.46-32q-4.1-20.37-4.1-52,0-28,5-48.08t14.57-32.81A59.08,59.08,0,0,1,781.7,14.87q13.57-6.07,31.11-6.08,11.88,0,26.31,1t25.45,2.12V29.15H813.1q-24,0-37.76,18.53T761.62,104.1q8.49-1.12,18.81-1.83t20.5-.85q10.19-.15,18.1-.15,18.68,0,31.68,4.25t19.66,13.86Q877,129,877,144.83V174q0,16.69-6.51,26.59A37.62,37.62,0,0,1,853,215a63.69,63.69,0,0,1-24.33,4.52Zm3.67-20.36h24.33a45.31,45.31,0,0,0,15.27-2.41,21.46,21.46,0,0,0,10.89-8.48q4.09-6.08,4.1-17.68V148.51q0-11.88-4.81-17.82T836,122.63a97.88,97.88,0,0,0-22.06-2.12H761.62q0,23.47,2.54,38.89t7.5,24q5,8.63,12.16,12.16A36.43,36.43,0,0,0,800.08,199.14Z" transform="translate(-5 -6.2)"/><path class="cls-1" d="M984.49,219.22A65,65,0,0,1,957.76,214a40.25,40.25,0,0,1-18.38-16.12q-6.64-10.89-6.65-28.15V59.41q0-16.68,6.65-27.85a43.26,43.26,0,0,1,18.38-17,59.67,59.67,0,0,1,26.73-5.79h40.45q17.54,0,28.56,6.36a38.81,38.81,0,0,1,16.27,17.68Q1075,44.14,1075,59.41V169.72q0,25.74-13.72,37.62t-36.34,11.88Zm4.24-20.08h31.12q17.25,0,24.89-8.63t7.63-23.62V61.11q0-16.12-8.06-24t-23.61-7.92H988.17q-15.27,0-24,8.34t-8.77,23.62V166.89q0,16.13,8.91,24.19T988.73,199.14Z" transform="translate(-5 -6.2)"/><path class="cls-2" d="M208.18,51.82c14.53,0,25.49,3,32.59,8.75,6.78,5.55,10.07,13.45,10.07,24.16s-3.31,18.68-10.1,24.32c-7.09,5.89-18,8.87-32.56,8.87H199a8.17,8.17,0,0,0-6.53,3,7.75,7.75,0,0,0-.27,9.16l44.73,65,16,22.88a7.32,7.32,0,0,0,6,3.12h48.87a2.33,2.33,0,0,0,1.91-3.67l-45-64.34a2.19,2.19,0,0,1,.77-3.16,70,70,0,0,0,24.75-22.24h0c8.12-12,12.24-26.46,12.24-42.9,0-16-3.85-30.12-11.43-41.92s-18.61-21-32.72-27.26c-13.74-6.11-30-9.2-48.29-9.2H5.93a.21.21,0,0,0-.21.21V51.33a.21.21,0,0,0,.21.21Z" transform="translate(-5 -6.2)"/><path class="cls-2" d="M347.41,117.08a11.68,11.68,0,0,0-11.67,11.68v89.66a2.48,2.48,0,0,0,2.48,2.48h46.25a2.48,2.48,0,0,0,2.48-2.48v-53a2.48,2.48,0,0,1,2.48-2.48H425.3c18.31,0,34.55-3.1,48.29-9.21,14.12-6.27,25.13-15.5,32.73-27.42s11.42-25.94,11.42-41.75c0-16-3.85-30.11-11.43-41.91h0c-7.6-11.82-18.61-21-32.72-27.26C459.85,9.3,443.6,6.2,425.3,6.2H339a3.21,3.21,0,0,0-3.21,3.21V22.16a29.17,29.17,0,0,0,29.17,29.16l72.12.34a32.29,32.29,0,0,1,3.7,64.25,30.17,30.17,0,0,1-4.14.25Z" transform="translate(-5 -6.2)"/><rect class="cls-1" x="0.72" y="84.1" width="125.5" height="43.08"/><path class="cls-2" d="M163.2,202a29.16,29.16,0,0,0-28-26.26H5v45.07H67.85v-.12c2,.08,3.93.12,5.93.12h86.36a3.21,3.21,0,0,0,3.21-3.2v-2a5.07,5.07,0,0,0,.05-.56v-9.77a30.35,30.35,0,0,0-.2-3.32" transform="translate(-5 -6.2)"/></svg>