<svg id="Layer_1" data-name="Layer 1" xmlns="http://www.w3.org/2000/svg" viewBox="0 0 500 350"><defs><style>.cls-1{fill:#f97c0b;}</style></defs><path class="cls-1" d="M56,131a50,50,0,0,1,50-50H406a50,50,0,0,1,50,50V331H406V131H106V331H56ZM6,371a15,15,0,0,1,15-15H491a15,15,0,0,1,15,15,60,60,0,0,1-60,60H66A60,60,0,0,1,6,371ZM225.53,219.28,201.31,243.5l24.22,24.22a18.72,18.72,0,1,1-26.48,26.48l-37.5-37.5a18.66,18.66,0,0,1,0-26.48l37.5-37.5a18.72,18.72,0,1,1,26.48,26.48ZM313,192.72l37.5,37.5a18.67,18.67,0,0,1,0,26.48L313,294.2a18.72,18.72,0,1,1-26.48-26.48l24.22-24.22-24.22-24.22A18.72,18.72,0,1,1,313,192.8Z" transform="translate(-6 -81)"/></svg>