<svg id="Layer_1" data-name="Layer 1" xmlns="http://www.w3.org/2000/svg" viewBox="0 0 499.74 500"><defs><style>.cls-1{fill:#23bbb3;}</style></defs><path class="cls-1" d="M430.91,68.44a62.45,62.45,0,0,1-75.27,61.17l-32,52.9a99.71,99.71,0,0,1,32.28,73.56v1.45l32.39,6.5a62.48,62.48,0,1,1-7,36.86l-33-6.65a100.35,100.35,0,0,1-43.53,49.08l12.37,37.75h1.25a62.47,62.47,0,1,1-36.78,12l-12.39-37.88a99.8,99.8,0,0,1-93.76-39.81l-44.85,21.19a62.46,62.46,0,1,1-15.19-34.28l43.82-20.71a100.1,100.1,0,0,1,19.6-89.11l-24.77-28.24a62.45,62.45,0,1,1,29.09-23.68l24.56,28a100.17,100.17,0,0,1,84-5.75l31.11-51.47a62.47,62.47,0,1,1,108-42.8Z" transform="translate(-6.13 -6)"/></svg>