<svg id="Layer_1" data-name="Layer 1" xmlns="http://www.w3.org/2000/svg" viewBox="0 0 500 471.43"><defs><style>.cls-1{fill:#f97c0b;}</style></defs><path class="cls-1" d="M156,206a92.86,92.86,0,1,0-92.86-92.86A92.86,92.86,0,0,0,156,206Zm292.86-71.43a71.43,71.43,0,1,1-71.43-71.43A71.43,71.43,0,0,1,448.86,134.57ZM220.29,363.14a156.79,156.79,0,0,1,56.94-121,56.83,56.83,0,0,0-28.37-7.52H63.14A57.14,57.14,0,0,0,6,291.71S6,406,156,406c27.23,0,49.51-3.77,67.74-9.91A158,158,0,0,1,220.29,363.14Zm285.71,0A128.57,128.57,0,1,1,377.43,234.57,128.57,128.57,0,0,1,506,363.14Zm-61.31-53a14.29,14.29,0,0,0-20.21,0l0,0-75.6,75.63L330.4,367.31a14.3,14.3,0,1,0-20.23,20.23l28.57,28.57a14.29,14.29,0,0,0,20.21,0l0,0,85.72-85.71a14.29,14.29,0,0,0,0-20.2Z" transform="translate(-6 -20.29)"/></svg>