<svg id="Layer_1" data-name="Layer 1" xmlns="http://www.w3.org/2000/svg" viewBox="0 0 500 416.97"><defs><style>.cls-1{fill:#f97c0b;}</style></defs><path class="cls-1" d="M482.1,375.47a23.47,23.47,0,0,1-23.89-23.89v-141L266.45,315.14a47.89,47.89,0,0,1-11,4.49,46.43,46.43,0,0,1-12.25,1.48,48.41,48.41,0,0,1-12.26-1.48,46.26,46.26,0,0,1-11-4.49L18.54,205.22a21.7,21.7,0,0,1-9.27-8.67,24.46,24.46,0,0,1,0-24.49,21.57,21.57,0,0,1,9.24-8.65L220.46,53.49A47.85,47.85,0,0,1,231.52,49a44.55,44.55,0,0,1,11.64-1.48A45.53,45.53,0,0,1,254.82,49a48.81,48.81,0,0,1,11,4.47L493.45,177.74a21.75,21.75,0,0,1,9.28,8.68A23.84,23.84,0,0,1,506,198.65V351.58a23.45,23.45,0,0,1-23.9,23.89Zm-238.94,89A45.47,45.47,0,0,1,231.5,463a48.44,48.44,0,0,1-11-4.47L101,394a47,47,0,0,1-25.09-42.41v-90.8L211.5,334.26q7.75,4.17,15.53,7.47a40.34,40.34,0,0,0,32.57-.31q8.07-3.59,15.81-7.76l135-72.88v90.8A47,47,0,0,1,385.33,394L265.86,458.51a48.25,48.25,0,0,1-11,4.49A44.54,44.54,0,0,1,243.16,464.48Z" transform="translate(-6 -47.52)"/></svg>